# xmcd
#
# Track frame offsets: 
#        150
#        6672
#        24022
#        31802
#        54022
#        77717
#        104977
#        136297
#        155525
#        175655
#        180900
#        198587
#        209910
#        227807
#        241282
#        254612
#
# Disc length: 3577 seconds
#
# Revision: 2
# Processed by: cddbd v1.5.2PL0 Copyright (c) Steve Scherf et al.
# Submitted via: ExactAudioCopy v0.99pb4
#
DISCID=d50df710
DTITLE=Wildwest - Abenteuer - Das Gold der Apachen (20)
DYEAR=2003
DGENRE=Speech
TTITLE0=In den Bergen des Aberglaubens - allein
TTITLE1=Die Goldgräber
TTITLE2=Der dich behütet
TTITLE3=Ein gefährlicher Lederbeutel
TTITLE4=Der Schläfer mit dem offenen Auge
TTITLE5=Böse süße Verwechslung
TTITLE6=Von Hector verfolgt
TTITLE7=Nora am Abgrund
TTITLE8=Blutende Hand
TTITLE9=Weiße Feder
TTITLE10=Zertretene Träume der Sucht
TTITLE11=Das böse Erwachen
TTITLE12=Der Mann mit dem Kreuz
TTITLE13=Was ist wertvoller als Gold
TTITLE14=Im Scheinwerferlicht des Bösen
TTITLE15=Der Weg nach Hause
EXTD=
EXTT0=
EXTT1=
EXTT2=
EXTT3=
EXTT4=
EXTT5=
EXTT6=
EXTT7=
EXTT8=
EXTT9=
EXTT10=
EXTT11=
EXTT12=
EXTT13=
EXTT14=
EXTT15=
PLAYORDER=
